<?xml version="1.0" standalone="no"?>
<!DOCTYPE svg PUBLIC "-//W3C//DTD SVG 20010904//EN"
 "http://www.w3.org/TR/2001/REC-SVG-20010904/DTD/svg10.dtd">
<svg version="1.0" xmlns="http://www.w3.org/2000/svg"
 width="1500.000000pt" height="1500.000000pt" viewBox="0 0 1500.000000 1500.000000"
 preserveAspectRatio="xMidYMid meet">
<metadata>
Created by potrace 1.14, written by Peter Selinger 2001-2017
</metadata>
<g transform="translate(0.000000,1500.000000) scale(0.100000,-0.100000)"
fill="#000000" stroke="none">
<path d="M174 10649 c-4 -7 -8 -2970 -4 -3134 0 -20 6 -20 577 -19 510 1 746
6 809 18 19 4 110 17 149 21 36 5 259 64 316 84 582 207 954 659 1026 1246 9
76 10 331 1 410 -83 727 -637 1251 -1437 1361 -25 3 -57 8 -71 12 -44 10
-1359 11 -1366 1z m1249 -443 c58 -5 134 -15 228 -31 14 -3 66 -16 114 -30
383 -111 636 -341 743 -675 46 -141 57 -224 56 -415 -1 -584 -336 -966 -944
-1080 -130 -24 -235 -29 -614 -30 l-349 0 0 1126 c0 620 3 1131 6 1136 6 10
642 9 760 -1z"/>
<path d="M3060 10651 c0 -7 26 -58 122 -241 33 -63 85 -162 116 -220 30 -58
72 -136 92 -175 21 -38 66 -124 100 -190 151 -291 195 -374 230 -440 21 -38
62 -117 92 -175 31 -58 83 -159 118 -225 34 -66 109 -208 165 -315 56 -107
128 -244 160 -305 31 -60 77 -146 100 -190 23 -44 75 -143 115 -220 40 -77 90
-171 110 -210 21 -38 58 -110 84 -159 l46 -88 -61 -116 c-34 -63 -86 -163
-116 -221 -56 -108 -123 -235 -219 -418 -30 -57 -78 -149 -108 -205 -29 -57
-79 -152 -111 -213 -32 -60 -79 -150 -105 -200 -52 -97 -105 -199 -223 -425
-41 -80 -98 -188 -126 -240 -28 -52 -72 -135 -97 -185 -25 -49 -57 -110 -70
-135 -14 -25 -70 -133 -126 -240 -55 -107 -104 -199 -108 -205 -11 -16 -180
-343 -180 -349 0 -4 123 -6 273 -6 l272 0 58 113 c31 61 86 166 120 232 105
201 207 395 260 495 97 185 165 317 237 455 40 77 90 172 110 210 21 39 63
120 95 180 32 61 79 151 105 200 26 50 80 153 120 230 40 77 92 176 115 220
23 44 75 143 115 220 40 77 89 172 110 210 20 39 72 138 115 220 43 83 81 154
86 159 4 5 -9 41 -30 80 -21 39 -82 157 -136 261 -54 105 -101 195 -105 200
-4 6 -44 82 -90 170 -45 88 -104 201 -130 250 -26 50 -78 149 -115 220 -37 72
-87 166 -110 210 -23 44 -73 139 -110 210 -37 72 -87 166 -110 210 -23 44 -75
143 -115 220 -40 77 -89 172 -110 210 -20 39 -64 122 -97 185 -34 63 -83 158
-110 210 -28 52 -88 167 -134 255 -45 88 -97 187 -115 220 l-33 60 -270 1
c-149 1 -271 -2 -271 -5z"/>
<path d="M4570 10651 c0 -3 6 -17 13 -31 7 -14 44 -83 82 -155 37 -71 89 -170
115 -220 26 -49 76 -144 110 -210 62 -119 115 -220 202 -385 25 -47 78 -148
118 -225 82 -159 165 -317 220 -420 21 -38 66 -124 100 -190 35 -66 84 -160
110 -210 26 -49 75 -144 110 -210 34 -66 77 -147 95 -180 18 -33 70 -132 115
-220 46 -88 113 -216 150 -285 36 -69 91 -173 120 -232 30 -58 58 -104 62
-101 5 2 23 35 42 71 18 37 72 144 121 237 48 94 125 242 170 330 46 88 114
221 153 295 38 74 106 207 152 295 45 88 115 223 155 300 40 77 114 221 165
320 51 99 123 239 160 310 37 72 116 225 175 340 59 116 133 260 165 320 141
269 230 445 230 452 0 4 -119 8 -264 8 l-264 0 -205 -410 c-113 -225 -246
-493 -297 -595 -51 -102 -142 -284 -202 -405 -313 -627 -462 -924 -465 -921
-1 1 -265 526 -587 1167 l-584 1164 -271 1 c-149 1 -271 -1 -271 -5z"/>
<path d="M8429 10651 c-7 -35 -2 -3144 5 -3148 13 -8 1185 -7 1276 1 166 15
349 48 486 90 368 110 676 329 866 613 227 341 305 772 217 1207 -127 634
-618 1078 -1334 1210 -12 2 -48 7 -80 11 -33 4 -69 10 -80 13 -29 8 -1355 11
-1356 3z m1251 -445 c662 -55 1074 -410 1135 -981 14 -126 11 -253 -9 -377
-82 -517 -481 -841 -1101 -895 -44 -4 -240 -7 -435 -8 l-355 0 -2 1125 c-1
619 -1 1130 1 1135 4 11 637 12 766 1z"/>
<path d="M3679 7418 c-24 -46 -56 -108 -72 -138 -38 -73 -88 -168 -241 -460
-71 -135 -148 -281 -171 -325 -23 -44 -70 -134 -105 -200 -34 -66 -82 -156
-105 -200 -23 -44 -73 -138 -110 -210 -37 -71 -89 -170 -115 -220 -26 -49 -83
-157 -126 -240 -43 -82 -90 -171 -104 -198 -14 -26 -56 -107 -94 -180 -38 -72
-85 -163 -106 -202 -20 -38 -68 -128 -105 -200 -37 -71 -87 -167 -111 -212
-24 -45 -44 -84 -44 -87 0 -3 123 -6 273 -6 l272 0 47 93 c27 50 74 142 106
202 32 61 96 182 142 270 45 88 102 196 125 240 23 44 67 127 97 185 31 58 79
150 108 205 29 54 86 165 127 245 42 80 88 168 103 195 15 28 62 118 105 200
43 83 97 186 120 230 43 81 107 205 230 440 37 72 82 157 100 190 18 33 74
141 125 240 51 99 97 184 101 190 5 5 9 15 9 22 0 10 -55 13 -269 13 l-270 0
-42 -82z"/>
<path d="M13078 6542 l-178 -2 0 -1101 0 -1100 483 4 c265 2 498 7 517 11 19
3 51 9 70 13 19 3 43 8 54 10 66 12 200 59 281 97 333 157 539 428 595 781 16
96 14 282 -4 385 -76 432 -384 745 -841 856 -111 26 -129 29 -240 40 -76 7
-456 11 -737 6z m752 -322 c396 -49 646 -254 721 -589 25 -114 21 -323 -8
-426 -46 -165 -131 -289 -259 -381 -100 -71 -230 -124 -364 -148 -19 -3 -46
-9 -60 -12 -14 -4 -159 -9 -322 -11 l-298 -5 0 790 0 791 38 3 c85 7 464 -1
552 -12z"/>
<path d="M5539 6533 c-1 -5 -2 -500 -3 -1100 l-1 -1093 170 0 170 0 0 510 c0
333 3 511 10 513 5 2 216 3 468 3 l457 -1 1 30 c0 16 0 84 0 150 l1 120 -463
2 c-275 2 -465 7 -468 12 -4 5 -6 130 -6 278 l0 268 653 1 c359 1 656 4 659 8
3 3 6 72 6 153 l0 148 -826 3 c-455 1 -828 -1 -828 -5z"/>
<path d="M7594 5878 c2 -365 6 -674 9 -688 3 -14 8 -47 12 -74 4 -27 19 -93
34 -145 91 -315 298 -525 603 -611 159 -45 442 -60 588 -30 30 6 66 14 80 16
57 11 191 63 254 98 258 144 407 403 451 784 5 40 10 1200 6 1295 -1 15 -16
17 -173 17 l-173 0 -1 -623 c-1 -342 -4 -642 -7 -667 -44 -403 -251 -604 -632
-615 -168 -5 -275 16 -393 77 -173 89 -273 262 -308 534 -3 27 -6 329 -6 672
l-1 622 -173 0 -174 0 4 -662z"/>
<path d="M10229 5643 c0 -1280 0 -1277 0 -1290 1 -10 42 -13 171 -13 l170 0 0
845 c0 489 4 845 9 845 5 0 11 -6 14 -12 2 -7 54 -74 113 -149 60 -74 123
-153 139 -173 17 -21 57 -73 91 -115 33 -42 112 -141 176 -221 63 -80 256
-323 429 -540 173 -217 329 -414 347 -437 l34 -43 169 0 169 0 1 28 c1 33 1
2118 0 2150 -1 22 -2 22 -169 22 l-169 0 1 -849 c1 -467 -2 -847 -6 -845 -9 6
-134 162 -603 754 -76 96 -156 198 -179 226 -23 28 -53 66 -68 85 -26 34 -193
244 -394 497 l-105 132 -170 0 -169 0 -1 -897z"/>
</g>
</svg>
