<?xml version="1.0" encoding="UTF-8" standalone="no"?>
<!-- Created with Inkscape (http://www.inkscape.org/) -->
<svg version="1.1" id="svg48" width="4266.6665" height="2666.6667" viewBox="0 0 4266.6665 2666.6667" sodipodi:docname="intro.svg" inkscape:version="1.2.2 (b0a8486, 2022-12-01)" xmlns:inkscape="http://www.inkscape.org/namespaces/inkscape" xmlns:sodipodi="http://sodipodi.sourceforge.net/DTD/sodipodi-0.dtd" xmlns="http://www.w3.org/2000/svg" xmlns:svg="http://www.w3.org/2000/svg">
  <defs id="defs52"/>
  <sodipodi:namedview id="namedview50" pagecolor="#ffffff" bordercolor="#000000" borderopacity="0.25" inkscape:showpageshadow="2" inkscape:pageopacity="0.0" inkscape:pagecheckerboard="0" inkscape:deskcolor="#d1d1d1" showgrid="false" inkscape:zoom="0.088499996" inkscape:cx="2135.5933" inkscape:cy="1384.1809" inkscape:window-width="1419" inkscape:window-height="843" inkscape:window-x="0" inkscape:window-y="25" inkscape:window-maximized="0" inkscape:current-layer="g58">
    <inkscape:page x="0" y="0" id="page54" width="4266.6665" height="2666.6667"/>
  </sodipodi:namedview>
  <g id="g56" inkscape:groupmode="layer" inkscape:label="Page 1" transform="matrix(1.3333333,0,0,-1.3333333,0,2666.6667)">
    <g id="g58" transform="scale(0.1)">
      <path d="M 34542.373,-2754.2375 H -1864.4069 V 20000 H 34542.373 V -2754.2375" style="fill:#ffffff;fill-opacity:1;fill-rule:nonzero;stroke:none;stroke-width:1.13771" id="path60"/>
      <path d="m 1860.5073,12.222703 c 0,0 -2268.00592,2544.606397 -1146.97292,7459.521697 705.10832,3091.5046 3698.33732,4995.8066 7637.57372,4476.7826 3646.9349,-480.342 3585.6129,1447.738 6776.3259,3287.646 6825.019,3935.8 16697.514,2264.274 14334.714,-6588.7172 C 28318.634,4363.288 33058.683,4294.684 30702.937,12.222703 H 1860.5073" style="fill:#ebf3fa;fill-opacity:1;fill-rule:nonzero;stroke:none;stroke-width:1.13771" id="path62"/>
      <path d="m 20209.479,14756.741 c 50.856,72.017 116.615,138.346 198.417,196.255 17.293,12.515 37.999,24.347 60.298,35.838 96.592,48.125 227.429,79.981 321.29,75.317 718.465,-37.09 974.451,-890.032 407.984,-1316.902 -9.443,-6.826 -18.772,-13.766 -28.443,-20.479 -90.334,-63.143 -255.644,-110.585 -365.547,-106.148 -57.682,2.503 -112.52,10.126 -164.058,22.185 -515.042,122.532 -719.034,703.448 -429.941,1113.934 z m 989.354,1281.974 -318.559,14.449 -7.509,0.341 c -38.796,1.593 -72.472,-26.054 -78.389,-64.167 l -40.957,-263.153 c -0.569,-4.323 -1.593,-8.532 -2.958,-12.514 -9.671,-27.874 -34.814,-48.467 -64.85,-50.515 -176.459,-14.563 -347.798,-63.712 -504.689,-145.399 -6.599,-3.3 -13.425,-5.575 -20.251,-7.054 -26.054,-5.006 -53.7,4.209 -71.903,24.461 l -146.083,167.471 c -19.455,21.844 -49.718,30.263 -76.795,23.209 -8.192,-2.389 -16.611,-5.916 -24.347,-11.15 l -266.794,-186.698 c -32.766,-22.868 -42.778,-67.808 -22.413,-102.735 l 148.472,-255.644 c 14.563,-25.258 13.311,-56.431 -3.3,-80.437 -23.55,-34.927 -45.736,-70.538 -66.214,-107.968 -38.569,-70.083 -69.97,-141.987 -94.658,-215.028 l -0.114,-0.341 c -10.353,-30.491 -37.658,-51.197 -69.855,-52.563 l -300.015,-12.059 -15.018,-0.683 c -38.568,-1.251 -70.31,-32.425 -72.131,-71.562 l -14.904,-325.613 c -1.592,-39.593 26.623,-74.52 65.988,-80.664 l 292.847,-45.622 c 32.538,-4.892 58.251,-30.263 63.37,-62.347 24.12,-135.615 68.604,-267.021 132.999,-388.87 15.928,-31.287 8.874,-69.173 -17.635,-92.496 l -198.075,-173.614 c -30.15,-26.509 -35.042,-70.766 -12.288,-103.077 l 187.268,-268.045 c 22.299,-31.628 64.963,-40.844 97.957,-21.617 l 300.811,174.07 c 25.371,14.904 57.113,13.88 81.801,-2.275 30.377,-20.138 61.664,-39.137 94.089,-56.999 61.209,-33.563 123.669,-61.892 186.698,-84.988 28.898,-10.239 48.808,-36.748 49.605,-67.352 l 14.107,-360.541 c 1.821,-39.706 33.221,-71.221 72.7,-73.155 l 326.751,-15.131 c 34.586,-1.366 65.873,21.047 75.885,53.472 1.024,3.299 2.162,7.054 2.503,10.695 l 50.742,324.93 c 4.551,30.263 26.281,54.838 55.748,62.347 2.617,0.796 5.234,1.479 7.85,1.706 8.078,1.252 15.473,2.276 23.551,4.323 93.179,15.928 184.764,42.21 272.823,77.82 29.239,12.401 63.371,3.982 84.305,-20.479 l 183.626,-209.111 c 25.826,-29.695 70.425,-34.814 102.736,-12.174 l 59.388,41.527 206.836,145.058 c 32.653,22.527 42.209,66.442 22.413,101.029 l -146.196,251.889 c -15.928,26.736 -12.515,60.299 7.168,84.305 51.766,62.915 98.867,132.088 139.825,206.608 30.377,55.179 56.658,112.292 78.274,169.747 l 62.916,2.389 258.26,10.467 c 31.97,1.024 59.275,22.527 68.263,52.107 2.048,6.144 3.072,12.515 3.299,19.341 l 15.701,327.775 c 1.479,38.796 -26.509,72.358 -64.508,78.502 l -200.124,30.832 c -33.79,5.234 -60.526,33.335 -63.826,67.353 -13.197,141.303 -48.466,279.194 -104.555,408.211 -13.425,30.604 -5.803,65.646 18.999,86.466 l 250.411,219.351 c 27.874,24.802 32.994,66.328 11.605,97.046 l -189.771,270.662 c -22.413,32.197 -65.418,41.64 -98.639,21.958 l -312.871,-181.124 c -26.85,-15.928 -60.413,-13.425 -85.101,5.803 -52.79,41.071 -110.017,78.16 -170.884,111.609 -32.653,17.976 -65.874,34.473 -99.436,49.491 -26.168,11.832 -43.575,37.43 -45.054,66.101 l -13.652,345.75 c -1.593,40.048 -33.108,72.017 -73.269,74.293" style="fill:#dfedfb;fill-opacity:1;fill-rule:nonzero;stroke:none;stroke-width:1.13771" id="path64"/>
      <path d="m 23757.661,11997.107 c 91.586,100.574 205.129,189.543 341.541,262.698 28.784,15.814 62.802,30.035 99.095,43.347 157.345,55.065 363.84,78.843 506.85,53.586 1093.455,-194.549 1322.135,-1550.133 372.487,-2095.438 -15.7,-8.76 -31.401,-17.521 -47.556,-25.94 -150.52,-79.526 -412.762,-120.483 -580.347,-92.609 -87.945,14.79 -170.316,37.089 -246.997,65.418 -765.567,286.476 -966.714,1215.418 -445.073,1788.938 z m 1761.405,1774.262 -485.234,83.28 -11.604,1.934 c -59.161,9.785 -116.047,-25.939 -132.316,-83.28 l -113.089,-395.241 c -1.934,-6.599 -4.209,-12.743 -7.054,-18.659 -20.251,-40.73 -62.688,-67.58 -108.993,-64.963 -273.05,11.605 -545.077,-30.946 -801.176,-126.058 -10.581,-3.755 -21.503,-5.917 -32.197,-6.827 -40.958,-2.73 -81.574,16.611 -105.466,51.197 l -191.819,284.542 c -25.598,37.203 -70.31,55.975 -113.202,50.401 -12.97,-2.162 -26.622,-5.916 -39.251,-12.515 l -444.618,-234.938 c -54.61,-28.784 -78.616,-95.567 -54.041,-153.022 l 178.393,-420.157 c 17.521,-41.413 9.671,-88.969 -20.479,-122.531 -42.664,-49.036 -83.508,-99.323 -122.19,-152.681 -72.472,-100.005 -134.364,-204.106 -186.016,-311.278 l -0.341,-0.455 c -21.73,-44.826 -67.58,-71.335 -117.071,-67.125 l -461.911,39.023 -23.209,1.707 c -59.275,5.574 -113.999,-36.066 -124.124,-95.682 l -85.329,-496.042 c -10.012,-60.413 26.509,-119.233 85.556,-136.184 l 439.953,-125.945 c 48.922,-13.88 83.395,-57.682 85.215,-107.855 10.808,-212.297 53.928,-422.091 129.016,-621.191 18.545,-50.856 0.456,-107.627 -44.712,-138.232 l -336.649,-228.111 c -51.197,-34.814 -67.352,-101.598 -38.682,-155.525 l 235.62,-446.4385 c 27.988,-52.7898 91.7,-75.089 145.969,-51.8797 l 494.108,208.9977 c 41.868,17.8621 90.221,10.1256 124.921,-19.3411 42.55,-36.6343 87.035,-71.6758 133.226,-105.2383 87.262,-63.2568 177.483,-118.5496 269.751,-165.9922 42.21,-21.2752 67.694,-65.646 63.03,-112.6335 l -47.557,-555.0896 c -4.778,-61.2089 37.203,-115.4778 97.275,-125.9447 l 497.749,-85.8973 c 52.789,-8.6466 105.01,19.6825 126.627,67.3526 2.162,4.8921 4.551,10.3532 5.802,15.9279 l 139.939,488.0784 c 12.856,45.3947 50.856,78.9572 97.502,84.7596 4.095,0.6826 8.191,1.3652 12.401,1.1377 12.401,0.3413 24.119,0.5688 36.748,2.1616 145.855,6.485 291.254,29.2392 432.899,66.8975 47.102,13.3112 97.843,-6.1436 125.262,-47.6701 l 241.195,-355.4212 c 33.904,-50.5144 101.257,-66.8975 155.07,-38.3409 l 98.868,52.1072 344.84,182.7165 c 54.269,28.2153 77.251,93.6337 53.586,150.4055 l -175.662,413.8996 c -19.114,44.1432 -7.623,94.7714 27.191,127.8788 91.358,86.3524 176.8,183.3992 253.823,289.5475 57.113,78.844 108.197,161.214 152.454,245.063 l 96.933,-8.305 397.516,-33.449 c 49.149,-4.664 95.227,23.096 114.568,66.67 4.437,8.988 7.054,18.659 8.76,28.898 l 86.921,499.228 c 9.785,59.161 -26.85,115.933 -83.735,132.657 l -300.811,85.556 c -50.628,14.563 -86.352,62.688 -84.76,115.478 6.827,218.896 -20.82,436.881 -82.029,645.424 -14.562,49.377 3.869,101.598 45.85,128.675 l 425.618,288.296 c 47.329,32.539 63.257,95.113 36.293,146.31 l -238.806,451.103 c -28.101,53.472 -92.268,76.227 -146.878,52.448 l -514.132,-217.53 c -44.03,-19.227 -94.999,-8.874 -129.244,25.257 -72.928,73.041 -153.478,140.849 -240.285,203.764 -46.646,33.79 -94.316,65.532 -142.783,94.885 -37.886,23.21 -59.73,65.533 -56.317,109.903 l 45.281,532.222 c 5.234,61.778 -36.975,116.843 -97.957,127.879" style="fill:#cde3fd;fill-opacity:1;fill-rule:nonzero;stroke:none;stroke-width:1.13771" id="path66"/>
      <path d="m 9394.4471,10244.576 c -27.351,676.938 540.015,977.636 1120.1339,977.636 580.119,0 1211.435,-150.292 1266.159,-1050.336 35.156,-579.0954 -273.506,-935.4267 -1162.4,-935.4267 -299.787,0 -532.79,47.3288 -711.1839,131.6332 l -444.344,-394.786 218.395,545.7604 c -193.468,179.7585 -274.962,433.4682 -286.76,725.5191" style="fill:#dfedfb;fill-opacity:1;fill-rule:nonzero;stroke:none;stroke-width:1.13771" id="path68"/>
      <path d="m 3875.0537,44.306178 c 0,0 -24.0854,187.608692 -79.856,299.218222 -55.782,111.49577 -410.7367,40.50254 -410.7367,40.50254 0,0 -70.9933,-60.75381 -86.2045,-344.726694 l 576.7972,5.005932" style="fill:#233862;fill-opacity:1;fill-rule:nonzero;stroke:none;stroke-width:1.13771" id="path70"/>
      <path d="m 5084.3959,46.809144 c -83.4056,50.969492 -35.9517,430.737716 -35.9517,430.737716 0,0 388.6424,310.93666 442.0807,72.81356 53.4384,-238.00932 369.2103,-344.84047 548.9574,-373.96589 124.0788,-20.1375 162.488,-88.8553 174.3885,-129.585386 H 5084.3959" style="fill:#233862;fill-opacity:1;fill-rule:nonzero;stroke:none;stroke-width:1.13771" id="path72"/>
      <path d="m 4279.3965,2809.0598 c 15.8256,-87.1487 25.8602,-158.7108 28.5224,-209.9078 36.1338,-704.6988 593.203,-2316.0401 692.8438,-2353.58459 154.1827,-58.25085 396.9704,65.41843 523.9846,105.92097 52.6419,16.83814 88.1613,69.96928 76.4429,123.78306 -275.8724,1268.20746 -377.2653,3094.46256 -414.1499,4175.63016 -18.6357,544.6226 -112.1101,920.8639 -112.1101,920.8639 0,0 -1358.6897,362.4751 -1366.7561,-96.1366 -7.1448,-405.7081 450.0561,-1997.1394 571.2224,-2666.5691" style="fill:#213f7a;fill-opacity:1;fill-rule:nonzero;stroke:none;stroke-width:1.13771" id="path74"/>
      <path d="m 4279.3965,2809.0598 907.6438,1841.8418 c -18.6357,544.6226 -112.1101,920.8639 -112.1101,920.8639 0,0 -1358.6897,362.4751 -1366.7561,-96.1366 -7.1448,-405.7081 450.0561,-1997.1394 571.2224,-2666.5691" style="fill:#233862;fill-opacity:1;fill-rule:nonzero;stroke:none;stroke-width:1.13771" id="path76"/>
      <path d="M 4581.6979,5474.0361 3863.4377,268.32165 c 0,0 -315.4193,-75.99916 -560.7441,-15.13157 0,0 -210.2833,2768.62182 -192.7511,3437.93772 17.5207,669.3159 -150.9289,1790.9861 38.4433,1914.7691 189.3607,123.6693 1433.3121,-131.8608 1433.3121,-131.8608" style="fill:#213f7a;fill-opacity:1;fill-rule:nonzero;stroke:none;stroke-width:1.13771" id="path78"/>
      <path d="m 3097.9169,6810.62 -89.5266,-1249.7765 c -3.4586,-47.1013 26.6338,-89.8792 71.9375,-102.9629 100.1756,-29.1254 215.6988,-49.3767 438.4969,-95.454 209.2366,-43.4606 490.7634,-82.0291 836.6847,-84.0769 550.1861,-3.5269 758.4784,186.1296 758.4784,186.1296 23.6985,-0.4551 -12.5148,114.6814 -45.1444,662.1483 -11.0472,185.4471 -21.7303,420.4983 -29.4099,717.6687 -6.9514,267.3623 -11.6387,584.8977 -12.0711,961.7078 -0.5802,453.2644 -702.1389,940.8877 -715.0974,940.8877 l -0.1365,-0.2275 c 0,-65.3047 -102.8719,-185.6746 -261.2756,-196.0277 -188.0296,-12.2873 -418.7007,81.2326 -418.7007,189.5427 0,1.024 -339.9142,-543.8262 -460.6368,-1124.2868 -15.3591,-73.61 -27.214,-151.2019 -36.657,-233.0034 -0.1479,-1.2515 -0.2845,-2.503 -0.4438,-3.7545 -1.752,-14.904 -3.3562,-29.9218 -4.8921,-45.0534 -0.2958,-2.6167 -0.512,-5.3472 -0.8078,-7.9639 -1.388,-13.7664 -2.7874,-27.6464 -4.0161,-41.6403 -0.3755,-3.8682 -0.6713,-7.964 -1.0353,-11.946 -1.1719,-12.8561 -2.2641,-25.5985 -3.288,-38.4546 -0.08,-1.2515 -0.2162,-2.3892 -0.2958,-3.5269 -0.8078,-9.6706 -1.4677,-19.2274 -2.1958,-28.8979 -0.512,-6.8263 -1.0239,-13.7663 -1.5359,-20.7064 -0.8078,-11.2633 -1.5359,-22.5267 -2.3323,-34.0176 -0.3755,-5.6885 -0.7395,-11.4909 -1.1036,-17.1794 -0.6599,-10.922 -1.3198,-21.7303 -1.9682,-32.8799 -0.2959,-4.7784 -0.5917,-9.6705 -0.8875,-14.5627 -0.876,-15.8142 -1.752,-31.7422 -2.5598,-47.8977 -0.068,-1.2514 -0.1479,-2.5029 -0.2162,-3.8682 -0.8078,-15.3591 -1.5473,-30.9457 -2.264,-46.6462 -0.2276,-3.8682 -0.3755,-7.7364 -0.512,-11.6046 -0.7395,-14.6765 -1.3994,-29.4668 -1.9796,-44.3708 -0.08,-2.1616 -0.2162,-4.4371 -0.2958,-6.5987 -1.5359,-36.293 -2.9239,-73.2687 -4.3119,-110.6994 -0.08,-0.9102 -0.08,-1.9341 -0.148,-2.8443 l 0.148,2.8443" style="fill:#f99746;fill-opacity:1;fill-rule:nonzero;stroke:none;stroke-width:1.13771" id="path80"/>
      <path d="m 4312.2536,8746.8918 c 0,0 652.3754,5.4611 809.3682,-214.6862 157.0043,-220.1472 501.2531,-1404.7328 321.6198,-1798.8362 -179.6447,-394.2172 -515.7703,163.0341 -702.3323,404.4565 -186.5506,241.4225 -428.6557,1609.0659 -428.6557,1609.0659" style="fill:#f99746;fill-opacity:1;fill-rule:nonzero;stroke:none;stroke-width:1.13771" id="path82"/>
      <path d="m 4318.9206,8846.4416 -0.3641,-67.4663 c 0,0 18.3627,-210.9318 -241.3314,-241.65 -259.7055,-30.9457 -452.1153,40.0475 -445.0729,202.854 23.3914,125.9448 44.7348,254.62 46.4642,358.9481 0.6485,38.6822 -2.0138,79.8674 -9.2269,126.2861 l 503.2327,10.0118 148.2211,-24.2332 -1.9227,-364.7505" style="fill:#ffb27d;fill-opacity:1;fill-rule:nonzero;stroke:none;stroke-width:1.13771" id="path84"/>
      <path d="m 4320.8433,9211.1921 -1.9227,-364.7505 c -53.4497,-24.9159 -113.7712,-40.0474 -181.3968,-40.0474 -231.274,0 -380.7694,169.6328 -458.9074,292.7332 0.6485,38.6822 -2.0138,79.8674 -9.2269,126.2861 l 503.2327,10.0118 148.2211,-24.2332" style="fill:#e2915a;fill-opacity:1;fill-rule:nonzero;stroke:none;stroke-width:1.13771" id="path86"/>
      <path d="m 3630.8325,9306.4185 c 58.3873,-314.236 463.8451,-303.9966 639.0755,-284.2004 49.3084,5.461 80.3338,11.7185 80.3338,11.7185 55.6,14.904 86.614,102.5078 101.0402,217.1892 28.6021,226.9735 -7.543,560.323 -45.8725,645.5377 -57.7275,128.2205 -166.4473,266.9075 -574.7721,166.9025 -408.393,-100.2326 -274.7233,-354.625 -199.8049,-757.1475" style="fill:#ffb27d;fill-opacity:1;fill-rule:nonzero;stroke:none;stroke-width:1.13771" id="path88"/>
      <path d="m 4979.3624,7864.0274 c 0,0 252.3103,-557.1375 244.9721,-724.1536 0,0 -124.9435,4.2096 -244.9721,-31.5146 -197.2452,-58.8197 0,755.6682 0,755.6682" style="fill:#ed7d2b;fill-opacity:1;fill-rule:nonzero;stroke:none;stroke-width:1.13771" id="path90"/>
      <path d="m 4530.7171,10195.768 c 0,0 -179.7358,13.766 -391.7256,105.921 -172.0562,74.861 -389.1316,-7.509 -459.6015,-44.598 1.9,11.263 6.4281,26.85 17.1908,42.322 0,0 -31.6397,-22.412 -36.3043,-53.813 -3.2539,-2.389 -4.7102,-3.982 -3.8683,-4.551 0,0 -35.8606,6.599 -58.9107,-3.868 0,0 16.1328,2.389 21.8896,-7.964 0.6144,-1.138 1.5245,-2.048 2.5826,-2.958 -268.3976,-129.586 -293.177,-553.8385 -206.8133,-651.9093 103.9186,-118.0945 228.5208,-384.0915 228.5208,-384.0915 0,0 45.4289,62.8017 26.5429,166.7885 -18.8974,103.8731 70.8453,103.8731 184.2069,151.0882 113.3616,47.3288 18.8974,179.5309 118.0831,259.8534 99.1971,80.3224 462.8895,32.9936 458.168,94.43 135.0008,49.1492 100.039,319.4697 100.039,333.3497" style="fill:#233862;fill-opacity:1;fill-rule:nonzero;stroke:none;stroke-width:1.13771" id="path92"/>
      <path d="m 3548.5987,6820.2906 c 106.5239,-427.6659 1258.4003,-648.7234 1520.2447,-693.663 -11.0472,185.4471 -21.7303,420.4983 -29.4099,717.6687 l -1490.8348,-24.0057" style="fill:#ed7d2b;fill-opacity:1;fill-rule:nonzero;stroke:none;stroke-width:1.13771" id="path94"/>
      <path d="m 3801.4437,6681.2622 c -10.9675,0 -256.0648,36.6343 -299.9691,58.5921 -43.8929,21.9579 -244.6649,307.296 -113.1909,380.4509 131.4853,73.1549 484.4604,-219.5784 484.4604,-219.5784 l -71.3004,-219.4646" style="fill:#ffb27d;fill-opacity:1;fill-rule:nonzero;stroke:none;stroke-width:1.13771" id="path96"/>
      <path d="m 5292.1762,6596.5026 c 0,0 -947.9301,-51.4245 -1584.0817,84.7596 0,0 -16.0418,183.8542 183.877,265.4281 0,0 991.4704,210.1354 1229.6503,151.657 238.1914,-58.5921 170.5544,-501.8447 170.5544,-501.8447" style="fill:#f99746;fill-opacity:1;fill-rule:nonzero;stroke:none;stroke-width:1.13771" id="path98"/>
      <path d="m 3115.2556,7340.4524 c 196.7331,-237.2129 453.9015,-430.8515 737.4079,-476.2462 h 0.068 c 2.3437,3.6407 85.8176,130.3818 70.1627,316.6253 -7.2472,86.2385 -35.7014,185.2194 -103.236,290.5716 -20.7746,32.4248 -39.2852,70.3106 -55.7479,112.4059 -154.8084,395.0136 -131.7584,1156.3703 -131.7584,1156.3703 0,0 -657.4495,-68.8315 -862.2946,-361.5648 -125.4782,-179.1896 34.5296,-663.1722 345.398,-1038.1621" style="fill:#f99746;fill-opacity:1;fill-rule:nonzero;stroke:none;stroke-width:1.13771" id="path100"/>
      <path d="m 4269.908,9022.2181 c 49.3084,5.461 80.3338,11.7185 80.3338,11.7185 55.6,14.904 86.614,102.5078 101.0402,217.1892 -104.2599,-25.7123 -152.0324,-106.2623 -171.9424,-140.5075 -8.9879,-15.4728 -10.8196,-50.0593 -9.4316,-88.4002" style="fill:#e2915a;fill-opacity:1;fill-rule:nonzero;stroke:none;stroke-width:1.13771" id="path102"/>
      <path d="m 4534.7787,8844.5075 c 0,0 227.0645,374.6485 50.4916,390.9178 -176.5728,16.2693 -247.5092,-103.1904 -273.0167,-147.1061 -25.4961,-43.9157 6.667,-241.8776 6.667,-241.8776 l 215.8581,-1.9341" style="fill:#ffb27d;fill-opacity:1;fill-rule:nonzero;stroke:none;stroke-width:1.13771" id="path104"/>
      <path d="m 3669.3895,7193.4601 c 6.9514,-47.5564 21.1387,-91.2445 38.705,-130.1543 55.4521,-123.1004 144.569,-199.0996 144.569,-199.0996 h 0.068 c 589.6874,266.2246 709.022,1180.2623 728.9889,1682.4484 8.055,201.83 0,337.2178 0,337.2178 -266.0084,88.0589 -340.7902,-64.9634 -340.7902,-64.9634 0,0 -314.0882,-746.9078 -477.0199,-1235.1 -62.3352,-186.8123 -102.4964,-335.7388 -94.5211,-390.3489" style="fill:#f99746;fill-opacity:1;fill-rule:nonzero;stroke:none;stroke-width:1.13771" id="path106"/>
      <path d="m 3115.2556,7340.4524 c 196.7331,-237.2129 453.9015,-430.8515 737.4079,-476.2462 h 0.068 c 589.6874,266.2246 709.022,1180.2623 728.9889,1682.4484 0,0 -279.0352,-1012.1085 -658.8262,-1365.8231 -68.6268,-64.0532 -140.6212,-106.4899 -214.8,-117.5257 0,0 -478.9198,135.3877 -579.3798,262.8115 -7.1676,9.2154 -11.5591,13.6525 -13.4591,14.3351" style="fill:#ed7d2b;fill-opacity:1;fill-rule:nonzero;stroke:none;stroke-width:1.13771" id="path108"/>
      <path d="m 21941.759,4079.0876 c 0,0 374.648,439.6118 21.161,717.2135 0,0 -258.033,155.1839 -468.054,141.9865 0,0 298.99,-498.3178 202.854,-548.2634 -96.137,-49.9455 -293.189,579.3229 -293.189,579.3229 0,0 -586.376,55.179 -774.781,-35.9517 0,0 502.299,-408.7799 396.833,-433.4682 -105.465,-24.6884 -647.926,376.3551 -647.926,376.3551 0,0 -545.42,-94.4301 -515.384,-427.2108 29.922,-332.7808 218.327,-435.061 300.925,-425.9594 82.598,9.1017 565.443,194.8901 576.137,127.31 10.808,-67.6939 -279.649,-289.7752 -483.3,-300.6972 0,0 385.798,-423.2289 641.215,-300.1284 255.302,123.2142 276.577,317.3078 435.743,390.5765 159.166,73.2686 295.236,73.4961 229.704,-1.024 -65.646,-74.4063 -353.828,-147.3337 -444.618,-308.775 -90.675,-161.5551 -172.135,-270.4341 92.269,-229.9316 264.404,40.5026 693.89,235.2789 712.094,456.9051 18.317,221.7401 18.317,221.7401 18.317,221.7401" style="fill:#c8dbf4;fill-opacity:1;fill-rule:nonzero;stroke:none;stroke-width:1.13771" id="path110"/>
      <path d="m 20131.318,4440.8799 c 0,0 1481.983,61.2089 1810.441,-361.7923 0,0 73.041,-216.6204 296.26,-413.3308 l 35.042,-94.5438 c 0,0 -257.578,270.0928 -349.619,286.1345 0,0 142.327,525.6229 -1792.124,583.5324" style="fill:#c8dbf4;fill-opacity:1;fill-rule:nonzero;stroke:none;stroke-width:1.13771" id="path112"/>
      <path d="m 22238.019,3665.7568 c 0,0 318.787,-234.3686 341.996,-654.7531 l -57.682,-5.3473 c 0,0 -102.849,434.3784 -286.931,603.8975 -184.081,169.519 2.617,56.2029 2.617,56.2029" style="fill:#c8dbf4;fill-opacity:1;fill-rule:nonzero;stroke:none;stroke-width:1.13771" id="path114"/>
      <path d="m 23929.455,5238.1884 c 0,0 -598.891,333.1221 -321.176,788.3206 0,0 222.537,279.7633 461.456,352.1218 0,0 -125.603,-678.0763 1.934,-693.6629 127.652,-15.5867 85.556,765.6801 85.556,765.6801 0,0 629.041,304.6792 876.266,281.4699 0,0 -388.87,-662.8309 -261.333,-646.5617 127.538,16.3831 564.192,687.178 564.192,687.178 0,0 645.424,121.3939 750.093,-260.9911 104.784,-382.385 -62.119,-574.2032 -157.8,-598.3227 -95.568,-24.2332 -709.478,-17.9758 -693.322,-97.6157 16.156,-79.6398 431.079,-206.1533 662.148,-133.6811 0,0 -253.368,-630.6337 -588.311,-599.5742 -334.942,30.9458 -439.156,237.8956 -646.561,253.2547 -207.291,15.4729 -358.607,-40.8438 -254.848,-96.3642 103.76,-55.5203 454.516,-16.9519 622.329,-158.8246 167.812,-141.8726 303.541,-229.2489 -7.168,-293.8709 -310.709,-64.6221 -868.984,-26.2812 -981.276,212.5245 -112.179,238.9195 -112.179,238.9195 -112.179,238.9195" style="fill:#c8dbf4;fill-opacity:1;fill-rule:nonzero;stroke:none;stroke-width:1.13771" id="path116"/>
      <path d="m 25791.89,6391.3732 c 0,0 -1672.778,-546.7843 -1862.435,-1153.1848 0,0 8.647,-271.1167 -157.914,-582.5085 l 0.341,-119.5735 c 0,0 174.298,407.0733 269.752,463.1625 0,0 -376.128,525.1678 1750.256,1392.1043" style="fill:#c8dbf4;fill-opacity:1;fill-rule:nonzero;stroke:none;stroke-width:1.13771" id="path118"/>
      <path d="m 23771.541,4655.6799 c 0,0 -257.123,-392.7381 -108.538,-869.6669 l 66.329,18.0896 c 0,0 -65.874,525.5091 68.376,790.2547 134.364,264.7455 -26.167,61.3226 -26.167,61.3226" style="fill:#c8dbf4;fill-opacity:1;fill-rule:nonzero;stroke:none;stroke-width:1.13771" id="path120"/>
      <path d="m 22976.849,5697.3689 c 0,0 786.955,443.4801 417.54,1041.5753 0,0 -295.35,367.0258 -610.837,460.6595 0,0 170.543,-892.7625 2.503,-914.2653 -168.04,-21.5027 -118.436,1008.5816 -118.436,1008.5816 0,0 -831.326,397.0615 -1157.053,364.6367 0,0 517.431,-870.8047 349.164,-850.3259 -168.154,20.5926 -748.615,901.7504 -748.615,901.7504 0,0 -851.691,155.2977 -986.965,-349.505 -135.16,-504.8028 86.239,-756.4647 212.411,-787.638 126.172,-31.1733 935.427,-18.4309 914.607,-123.5555 -20.707,-105.1246 -566.695,-274.8712 -871.715,-181.1237 0,0 338.583,-829.2782 779.901,-786.0451 441.205,43.233 577.048,316.8527 850.326,338.6968 273.165,21.7303 473.061,-51.3108 336.649,-125.2621 -136.411,-73.8375 -599.005,-25.7123 -819.152,-213.8898 -220.261,-188.2913 -398.541,-304.338 11.491,-387.2772 410.145,-83.0529 1145.675,-28.4427 1291.871,287.2723 146.31,315.715 146.31,315.715 146.31,315.715" style="fill:#d4e4f8;fill-opacity:1;fill-rule:nonzero;stroke:none;stroke-width:1.13771" id="path122"/>
      <path d="m 20513.475,7203.927 c 0,0 2208.982,-708.567 2463.374,-1506.5581 0,0 -9.557,-357.3553 212.297,-766.5902 l 0.455,-157.6869 c 0,0 -232.662,535.2935 -359.062,608.5621 0,0 492.061,695.0282 -2317.064,1822.2731" style="fill:#d4e4f8;fill-opacity:1;fill-rule:nonzero;stroke:none;stroke-width:1.13771" id="path124"/>
      <path d="m 23189.146,4930.7787 c 0,0 341.769,-515.9524 149.496,-1145.6759 l -87.604,23.3231 c 0,0 83.053,693.2079 -96.023,1041.2339 -178.962,348.0261 34.131,81.1189 34.131,81.1189" style="fill:#d4e4f8;fill-opacity:1;fill-rule:nonzero;stroke:none;stroke-width:1.13771" id="path126"/>
      <path d="m 28115.211,135.89198 -6471.419,-16.04173 c -962.618,1102.10145 -1060.575,2591.93515 218.213,3846.60385 160.759,157.6869 469.193,269.5239 801.632,348.3674 612.885,145.2858 1307.8,178.507 1313.261,181.3512 2.048,0.7964 367.367,296.7153 587.173,562.7123 683.082,826.2064 1263.77,754.9856 1263.77,754.9856 695.939,135.1602 1289.483,174.6388 1729.436,-70.4243 0,-0.1138 0,-0.1138 0.114,-0.3413 407.528,-227.3149 683.31,-699.2378 786.159,-1566.4018 19.568,-163.9442 32.88,-342.1099 39.82,-535.2934 24.916,-703.6748 163.375,-1329.6439 245.518,-1859.7038 0.114,0 0.114,-0.2276 0.114,-0.2276 119.004,-767.7279 119.801,-1334.53599 -513.791,-1645.58642" style="fill:#f99746;fill-opacity:1;fill-rule:nonzero;stroke:none;stroke-width:1.13771" id="path128"/>
      <path d="m 27212.095,4875.0308 c -422.318,-229.9316 -469.306,-987.5339 -1130.316,-1182.879 -660.897,-195.5727 -1782.681,-177.1418 -2419.345,-867.164 -614.137,-665.6752 -1290.506,1028.8328 -998.797,1505.3066 612.885,145.172 1307.8,178.3932 1313.261,181.3512 2.048,0.7964 367.367,296.7153 587.173,562.7123 683.082,826.2064 1263.77,754.9856 1263.77,754.9856 695.939,135.0464 1289.483,174.6388 1729.436,-70.5381 0,-0.1138 0,-0.1138 0.114,-0.2276 223.219,-243.6978 77.023,-653.843 -345.296,-883.547" style="fill:#ed7d2b;fill-opacity:1;fill-rule:nonzero;stroke:none;stroke-width:1.13771" id="path130"/>
      <path d="m 24620.16,4658.1829 c 0,0 -2118.988,27.874 -2401.254,-152.7947 -282.153,-180.5549 291.026,-3050.2055 291.026,-3050.2055 0,0 548.036,-15.928 591.269,129.244 0,0 -102.28,1345.1168 -16.724,1577.6651 85.669,232.6621 31.628,554.6345 31.628,554.6345 0,0 1072.294,-160.6449 1412.469,-79.1847 340.062,81.4602 91.586,1020.6413 91.586,1020.6413" style="fill:#233862;fill-opacity:1;fill-rule:nonzero;stroke:none;stroke-width:1.13771" id="path132"/>
      <path d="m 25110.4,6141.4179 c -0.227,-1.7066 -298.194,-695.142 -443.48,-768.9795 -145.399,-73.8375 -671.591,-678.4176 -784.452,-667.8368 -112.747,10.4669 131.974,-91.8134 131.974,-91.8134 0,0 919.727,424.0252 973.199,450.4201 53.473,26.5087 335.17,489.8988 373.852,725.1776 38.682,235.165 -251.093,353.032 -251.093,353.032" style="fill:#ffb27d;fill-opacity:1;fill-rule:nonzero;stroke:none;stroke-width:1.13771" id="path134"/>
      <path d="m 23168.781,1241.1791 c -70.652,-136.2979 -86.58,-386.82207 -107.627,-471.80914 -20.934,-84.87331 -391.26,-373.85213 -423.115,-359.40319 -81.006,36.63433 -3.641,177.7106 45.849,280.90107 2.048,4.09576 3.982,8.30529 5.803,12.28728 48.808,103.98687 6.826,336.08008 32.083,455.88118 25.257,119.801 -96.137,442.4561 -96.137,442.4561 l 204.561,258.4882 c 0,0 143.693,-273.6197 246.542,-323.3378 18.204,-8.8741 35.156,-19.5686 50.173,-31.9697 69.742,-57.4544 99.891,-151.4294 41.868,-263.494" style="fill:#ffb27d;fill-opacity:1;fill-rule:nonzero;stroke:none;stroke-width:1.13771" id="path136"/>
      <path d="m 22449.633,443.07419 c -141.758,-58.36462 -315.601,-239.60212 -386.48,-291.0267 -70.88,-51.3108 -540.186,-33.10741 -555.204,-1.59279 -39.82,83.39428 124.238,142.66907 228.567,190.68051 1.592,0.68262 3.071,1.47902 4.664,2.16165 l 0.342,0.22754 c 103.076,51.87966 218.554,251.09301 313.781,325.27183 96.591,75.20275 211.841,400.01947 211.841,400.01947 l 322.997,65.5322 c 0,0 -66.556,-301.83494 -20.024,-406.16311 4.323,-9.8981 8.078,-19.79619 11.036,-29.80806 29.58,-96.93305 -2.958,-202.1714 -131.52,-255.30254" style="fill:#ffb27d;fill-opacity:1;fill-rule:nonzero;stroke:none;stroke-width:1.13771" id="path138"/>
      <path d="m 25719.19,6449.1689 c -43.119,49.8318 638.256,255.3026 783.542,-303.9966 0,0 1254.1,333.4634 483.186,892.1937 -266.907,193.411 -293.757,399.7919 -332.325,588.6521 -38.683,188.974 -304.907,731.6625 -767.159,462.3661 0,0 -211.16,-0.9102 -344.727,-116.7292 -303.883,-263.2666 -636.095,-1936.6132 177.483,-1522.4861" style="fill:#163560;fill-opacity:1;fill-rule:nonzero;stroke:none;stroke-width:1.13771" id="path140"/>
      <path d="m 25505.414,4559.7708 c 0,0 -2197.377,-223.3328 -2390.447,-447.5758 -193.069,-224.243 -952.378,-3140.76742 -952.378,-3140.76742 0,0 224.243,-125.03453 428.121,-8.19152 0,0 581.371,989.35424 838.607,1299.94954 257.237,310.5954 353.601,1269.5727 396.038,1279.3571 42.436,9.7843 1419.409,-192.2734 1893.607,171.6807 474.199,363.954 -213.548,845.5474 -213.548,845.5474" style="fill:#2a4e96;fill-opacity:1;fill-rule:nonzero;stroke:none;stroke-width:1.13771" id="path142"/>
      <path d="m 26729.25,6553.6109 c 0,0 -524.03,234.1411 -1188.681,127.0824 -135.843,-21.8441 -258.147,-66.4424 -355.307,-226.4046 -137.322,-225.9496 -201.489,-347.3435 -201.489,-347.3435 0,0 13.197,-104.7832 200.579,-188.1775 -51.084,-187.3812 46.646,-514.5871 -43.347,-641.5558 -90.107,-127.0824 -648.61,-441.8872 -676.256,-616.9811 -50.742,-321.7449 954.199,-905.1636 1253.986,-842.9307 862.385,179.1896 1448.307,2489.8824 1010.515,2736.3108" style="fill:#f9ddbf;fill-opacity:1;fill-rule:nonzero;stroke:none;stroke-width:1.13771" id="path144"/>
      <path d="m 26432.763,7216.5556 c 0,0 103.304,203.3091 117.07,370.0977 9.785,119.1184 -90.789,547.6945 -521.186,444.0489 0,0 -125.489,-24.4608 -237.099,-116.0466 -88.627,-72.9273 -212.41,-223.9017 -23.892,-588.3108 l 51.766,-124.2381 613.341,14.4489" style="fill:#163560;fill-opacity:1;fill-rule:nonzero;stroke:none;stroke-width:1.13771" id="path146"/>
      <path d="m 25842.632,6530.8567 c -43.575,-45.8498 -26.509,-198.417 177.255,-187.0399 133.681,7.5089 420.271,172.7047 393.421,287.0447 -12.743,54.2689 -115.478,194.3212 -139.597,516.5212 l -24.347,-6.8262 -408.098,-114.6814 c 0,0 19.683,-129.6992 29.581,-252.572 8.419,-103.1905 -10.24,-223.4467 -28.215,-242.4464" style="fill:#ffb27d;fill-opacity:1;fill-rule:nonzero;stroke:none;stroke-width:1.13771" id="path148"/>
      <path d="m 25841.266,7025.8751 c 0,0 19.683,-129.6992 29.581,-252.572 231.524,24.6883 337.559,245.9733 378.517,367.2534 l -408.098,-114.6814" style="fill:#f4a269;fill-opacity:1;fill-rule:nonzero;stroke:none;stroke-width:1.13771" id="path150"/>
      <path d="m 25832.506,6837.2425 c 0,0 534.042,134.25 445.3,465.6654 -88.741,331.3017 -79.639,571.7003 -424.366,500.0244 -344.727,-71.7896 -376.81,-215.8239 -374.08,-333.6909 2.731,-117.7532 211.956,-658.3938 353.146,-631.9989" style="fill:#ffb27d;fill-opacity:1;fill-rule:nonzero;stroke:none;stroke-width:1.13771" id="path152"/>
      <path d="m 25609.059,7745.8192 c 0,0 179.304,-341.6549 517.659,-378.5168 197.962,-21.5027 252.231,-151.9983 252.231,-151.9983 0,0 -59.389,372.942 -158.938,601.0532 0,0 -550.88,144.0343 -610.952,-70.5381" style="fill:#163560;fill-opacity:1;fill-rule:nonzero;stroke:none;stroke-width:1.13771" id="path154"/>
      <path d="m 25670.268,7700.652 c 0,0 -116.957,-119.346 -153.022,-203.5366 -53.472,-124.5795 50.742,-387.1634 93.747,-443.7077 0,0 -248.476,421.636 -165.423,604.2388 88.059,193.6386 224.698,43.0055 224.698,43.0055" style="fill:#163560;fill-opacity:1;fill-rule:nonzero;stroke:none;stroke-width:1.13771" id="path156"/>
      <path d="m 24041.179,4625.1893 c 0,0 -106.376,-112.6335 -119.233,-118.7771 -70.31,-32.8799 -159.165,-13.6526 -202.171,-24.4609 -42.892,-10.8082 -35.497,15.928 -3.868,37.6583 31.628,21.6165 109.561,13.1975 77.706,21.0477 -31.856,7.964 -203.765,39.9337 -268.5,22.6404 -102.395,-27.4188 -183.286,4.7784 -189.771,15.2454 -6.371,10.5807 234.027,127.9926 302.745,124.0106 68.718,-3.8682 266.111,5.5748 266.111,5.5748 l 136.981,-82.9392" style="fill:#ffb27d;fill-opacity:1;fill-rule:nonzero;stroke:none;stroke-width:1.13771" id="path158"/>
      <path d="m 26909.919,6345.8647 c 0,0 63.826,-1566.5155 -120.256,-1786.0939 -182.944,-218.0993 -1303.704,24.2333 -1303.704,24.2333 l -77.706,114.4538 c 0,0 994.929,145.6271 1061.713,164.5132 96.137,27.1913 29.239,1105.8559 29.239,1105.8559 l 410.714,377.0377" style="fill:#ffb27d;fill-opacity:1;fill-rule:nonzero;stroke:none;stroke-width:1.13771" id="path160"/>
      <path d="m 26662.808,6578.1855 c 15.928,-0.3413 214.004,-65.4185 356.104,-346.8884 139.711,-276.5777 190.567,-410.8277 190.567,-410.8277 0,0 -619.712,-480.1144 -866.14,-303.314 -246.429,176.9142 92.154,1066.9462 319.469,1061.0301" style="fill:#f9ddbf;fill-opacity:1;fill-rule:nonzero;stroke:none;stroke-width:1.13771" id="path162"/>
      <path d="m 25485.959,4584.0041 c 0,0 -89.197,-90.3343 -123.101,-136.4117 -34.017,-46.1911 -271.002,-129.8129 -276.35,-105.1245 -5.347,24.6883 106.035,100.0048 116.161,127.9926 10.012,27.9877 131.519,168.9502 205.584,184.9919 74.065,16.0417 77.706,-71.4483 77.706,-71.4483" style="fill:#ffb27d;fill-opacity:1;fill-rule:nonzero;stroke:none;stroke-width:1.13771" id="path164"/>
      <path d="m 25408.253,4698.4579 c 0,0 -365.547,-84.532 -427.552,-109.903 -62.005,-25.2572 -193.638,-211.5006 -141.418,-239.4883 32.994,-17.6345 177.256,58.5922 250.525,74.4064 73.155,15.9279 280.559,-20.1375 375.558,167.4711 10.695,21.0477 -57.113,107.5138 -57.113,107.5138" style="fill:#ffb27d;fill-opacity:1;fill-rule:nonzero;stroke:none;stroke-width:1.13771" id="path166"/>
      <path d="m 22449.633,443.07419 c -141.758,-58.36462 -315.601,-239.60212 -386.48,-291.0267 -70.88,-51.3108 -540.186,-33.10741 -555.204,-1.59279 -39.82,83.39428 124.238,142.66907 228.567,190.68051 1.592,0.68262 3.071,1.47902 4.664,2.16165 l 0.342,0.22754 14.676,4.77839 c 0,0 202.399,-72.2447 370.667,0 131.292,56.31674 325.84,265.20064 454.288,350.07394 29.58,-96.93305 -2.958,-202.1714 -131.52,-255.30254" style="fill:#2e3552;fill-opacity:1;fill-rule:nonzero;stroke:none;stroke-width:1.13771" id="path168"/>
      <path d="m 23168.781,1241.1791 c -70.652,-136.2979 -86.58,-386.82207 -107.627,-471.80914 -20.934,-84.87331 -391.26,-373.85213 -423.115,-359.40319 -81.006,36.63433 -3.641,177.7106 45.849,280.90107 29.126,1.82034 67.808,11.8322 113.089,42.09534 92.496,61.66398 249.5,294.32602 263.494,431.76162 11.491,111.9509 4.323,272.2545 66.442,339.9483 69.742,-57.4544 99.891,-151.4294 41.868,-263.494" style="fill:#2e3552;fill-opacity:1;fill-rule:nonzero;stroke:none;stroke-width:1.13771" id="path170"/>
      <path d="m 24936.899,4301.8516 h -1592.228 l -478.863,1191.0705 h 1589.725 l 481.366,-1191.0705" style="fill:#f99746;fill-opacity:1;fill-rule:nonzero;stroke:none;stroke-width:1.13771" id="path172"/>
      <path d="m 23326.013,4348.2702 h 2102.605 v -46.4186 h -2083.947 l -18.658,46.4186" style="fill:#ed7d2b;fill-opacity:1;fill-rule:nonzero;stroke:none;stroke-width:1.13771" id="path174"/>
      <path d="m 23746.625,4897.33 c -11.946,41.9815 12.174,75.8853 54.155,75.8853 41.868,0 85.442,-33.9038 97.502,-75.8853 11.946,-41.7541 -12.174,-75.7717 -54.041,-75.7717 -41.868,0 -85.556,34.0176 -97.616,75.7717" style="fill:#ffffff;fill-opacity:1;fill-rule:nonzero;stroke:none;stroke-width:1.13771" id="path176"/>
      <path d="m 26759.514,4309.1329 c 0,0 -208.202,-194.89 -1079.234,-222.5364 -871.146,-27.6464 -2007.037,-989.8094 -2017.846,-1261.6087 -10.694,-271.6856 1753.669,-685.3577 1780.974,-646.4479 27.306,38.9097 1119.281,976.1568 1119.281,976.1568 l 196.825,1154.4362" style="fill:#f99746;fill-opacity:1;fill-rule:nonzero;stroke:none;stroke-width:1.13771" id="path178"/>
      <path d="m 28628.888,1797.0651 c -469.079,844.4097 -1540.007,-320.1521 -1806.231,73.8375 -266.225,394.1034 376.355,894.1278 955.905,1325.093 567.718,422.0911 565.329,973.7676 564.988,996.1805 19.568,-163.9443 32.88,-342.1099 39.82,-535.4072 24.916,-703.6748 163.375,-1329.6438 245.518,-1859.7038" style="fill:#ed7d2b;fill-opacity:1;fill-rule:nonzero;stroke:none;stroke-width:1.13771" id="path180"/>
      <path d="m 21058.439,13588.425 c 5.575,-920.068 -317.535,-1764.591 -858.403,-2423.213 -465.779,-567.263 -728.25,-1274.2371 -728.25,-2008.4026 v -1058.072 c 0,-299.332 -109.22,-574.5445 -289.889,-787.4104 -207.632,-245.0631 -511.629,-410.714 -850.439,-433.6958 -27.419,-1.8203 -52.904,0.1138 -80.778,0.1138 h -1954.02 c -26.281,0 -54.724,-1.7066 -80.664,-0.1138 -635.412,40.7301 -1140.328,575.796 -1140.328,1221.1062 v 1056.2517 c 0,732.6864 -258.602,1440.0019 -724.609,2005.5589 -538.479,653.843 -862.044,1491.767 -862.044,2405.009 0,2099.533 1704.406,3784.826 3784.826,3784.826 2087.36,0 3772.425,-1674.485 3784.598,-3761.958" style="fill:#ffb93e;fill-opacity:1;fill-rule:nonzero;stroke:none;stroke-width:1.13771" id="path182"/>
      <path d="m 18331.458,6877.6312 c -9.785,-75.6578 -174.525,-1340.6796 -176.118,-1352.7394 -27.191,-208.7701 -265.883,-368.2773 -551.221,-368.2773 h -643.035 c -282.722,0 -520.958,157.0042 -550.88,364.4091 -31.174,218.2131 -150.975,1054.5451 -194.208,1356.6076 h 2115.462" style="fill:#ed7d2b;fill-opacity:1;fill-rule:nonzero;stroke:none;stroke-width:1.13771" id="path184"/>
      <path d="m 18076.155,6877.6312 h -363.499 c -586.376,-169.519 -1168.088,-337.104 -1437.612,-413.1031 l 14.107,-98.8672 0.342,-2.2754 14.335,-100.1187 c 218.327,60.5263 742.243,210.5905 2023.306,581.9397 l 4.21,32.4247 h -255.189" style="fill:#f99746;fill-opacity:1;fill-rule:nonzero;stroke:none;stroke-width:1.13771" id="path186"/>
      <path d="m 16372.545,5783.6075 v -0.2275 l 0.228,-2.1617 v -0.2275 l 14.449,-100.46 c 252.458,70.8795 773.189,220.261 1857.77,534.6108 l 14.335,109.1066 v 0.9102 l 14.107,108.4239 c -685.357,-198.417 -1514.863,-438.0191 -1914.996,-551.6765 l 14.107,-98.2983" style="fill:#f99746;fill-opacity:1;fill-rule:nonzero;stroke:none;stroke-width:1.13771" id="path188"/>
      <path d="m 16613.968,5246.4937 3.527,-2.0479 c 44.939,-26.1673 95.34,-47.3288 149.723,-62.2328 h 0.227 c 297.398,85.2146 738.944,212.7521 1395.631,402.9775 l 14.108,109.2204 0.114,0.9102 14.221,108.4239 c -586.49,-169.7466 -1259.333,-364.0678 -1674.939,-482.9587 28.101,-27.7602 60.867,-52.7898 97.388,-74.2926" style="fill:#f99746;fill-opacity:1;fill-rule:nonzero;stroke:none;stroke-width:1.13771" id="path190"/>
      <path d="m 16508.388,6877.6312 -817.901,4827.8808 168.837,28.556 822.565,-4856.4368 h -173.501" style="fill:#ffeac5;fill-opacity:1;fill-rule:nonzero;stroke:none;stroke-width:1.13771" id="path192"/>
      <path d="m 17963.294,6877.6312 h -174.752 l 875.81,4781.2338 168.382,-30.832 -869.44,-4750.4018" style="fill:#ffeac5;fill-opacity:1;fill-rule:nonzero;stroke:none;stroke-width:1.13771" id="path194"/>
      <path d="m 18291.752,11495.831 c -89.993,-86.466 -151.088,-197.279 -146.424,-282.607 3.527,-62.006 40.503,-106.263 110.131,-131.747 38.227,-14.108 64.394,-3.869 82.484,32.083 40.047,79.526 22.982,249.842 -46.191,382.271 z m -1911.811,33.108 c -90.448,-80.664 -141.304,-194.549 -152.681,-298.65 -9.557,-88.4 12.173,-160.19 52.79,-174.638 65.873,-23.437 114.226,-8.533 143.124,44.37 52.676,96.251 33.562,281.129 -43.233,428.918 z m 647.699,-164.172 c -47.443,-59.161 -84.646,-121.394 -104.556,-179.986 -39.365,-115.819 -7.054,-194.208 95.682,-233.004 41.413,-15.586 96.364,-27.873 122.645,1.935 40.73,46.191 16.838,177.255 -58.023,318.559 -16.611,31.287 -35.269,62.46 -55.748,92.496 z m 749.183,-3.755 c -102.621,-149.609 -174.752,-318.673 -158.255,-409.462 5.233,-28.784 19.454,-44.826 44.37,-50.514 101.484,-22.982 163.945,6.598 185.447,88.058 24.916,94.203 -7.736,241.195 -71.562,371.918 z m -51.424,-519.479 c -21.844,0 -46.419,2.731 -73.838,8.988 -45.85,10.467 -74.861,42.095 -83.963,91.813 -19.455,106.945 64.508,303.201 182.261,469.42 -61.55,107.514 -143.579,196.256 -229.59,222.309 -127.082,38.569 -322.086,-78.843 -457.929,-228.68 24.802,-35.269 47.215,-71.903 66.784,-108.879 69.628,-131.292 119.573,-299.332 51.197,-377.038 -25.371,-28.784 -77.137,-54.837 -179.872,-16.155 -128.22,48.353 -174.298,157.004 -126.4,298.08 23.437,69.173 66.67,141.077 121.508,207.747 -105.125,137.208 -245.746,241.422 -384.206,224.015 -73.951,-9.329 -137.435,-35.269 -190.225,-71.79 88.628,-164.854 108.993,-373.965 47.556,-486.258 -41.868,-76.454 -115.023,-100.573 -206.039,-68.262 -65.305,23.209 -99.436,113.088 -86.808,229.021 12.856,118.663 72.017,248.59 177.597,338.811 -27.533,42.891 -60.526,80.891 -98.412,110.358 -238.578,185.219 -435.971,-13.539 -444.277,-22.072 l -37.203,36.066 c 2.389,2.389 238.465,240.284 513.222,26.963 41.64,-32.311 77.82,-73.496 107.855,-119.801 58.592,39.82 128.675,68.036 210.249,78.389 155.298,19.455 310.254,-90.107 425.277,-235.848 147.789,160.531 358.152,279.195 505.03,234.938 92.838,-28.102 180.328,-117.64 247.225,-227.884 62.347,80.777 131.747,151.202 199.213,195.8 108.083,71.676 178.621,55.179 218.555,28.898 41.071,-26.964 75.999,-63.371 105.011,-105.011 32.538,25.826 66.67,47.898 100.46,64.736 125.262,62.46 240.284,57.796 323.906,-12.856 l -33.449,-39.593 c -90.22,76.341 -206.267,36.521 -267.362,6.144 -33.562,-16.838 -66.101,-38.113 -96.364,-62.347 83.394,-150.405 99.664,-346.433 51.88,-441.318 -30.15,-59.616 -83.85,-80.436 -146.651,-57.454 -113.089,41.412 -140.735,119.459 -144.035,177.483 -6.143,111.154 70.88,237.668 171.567,330.846 -26.053,38.796 -57.227,72.245 -93.406,96.023 -48.922,32.197 -114.909,2.162 -161.555,-28.67 -67.353,-44.599 -137.891,-117.981 -200.237,-201.261 77.705,-147.903 117.98,-320.153 88.514,-431.307 -14.336,-53.928 -55.293,-134.364 -173.046,-134.364" style="fill:#ffeac5;fill-opacity:1;fill-rule:nonzero;stroke:none;stroke-width:1.13771" id="path196"/>
      <path d="m 19227.406,15895.022 c 311.164,-293.189 272.141,-832.578 -128.106,-952.493 -301.722,-90.561 -751.687,30.264 -973.996,415.379 -222.422,385.115 -119.801,701.741 152.909,859.2 272.823,157.459 625.514,-17.179 949.193,-322.086" style="fill:#ffeac5;fill-opacity:1;fill-rule:nonzero;stroke:none;stroke-width:1.13771" id="path198"/>
      <path d="m 7553.6289,7866.7579 c -36.3613,70.0831 793.2012,322.6551 806.3532,-369.415 0,0 1554.001,38.2271 812.008,904.3672 -256.873,299.9008 -230.455,547.8082 -222.753,778.5362 7.805,230.8417 -159.996,901.6367 -735.201,834.1707 0,0 -150.644,61.209 -338.6282,-36.2934 -427.518,-221.74 -1385.2211,-2366.5544 -321.779,-2111.3657" style="fill:#163560;fill-opacity:1;fill-rule:nonzero;stroke:none;stroke-width:1.13771" id="path200"/>
      <path d="m 10094.196,7093.1139 c 0,0 101.257,153.9324 182.717,157.0042 81.574,2.9581 232.548,45.2809 220.375,15.0178 -12.06,-30.1494 -105.58,-33.2212 -114.682,-51.3108 -9.101,-18.0896 138.915,-45.2809 181.124,-48.239 42.323,-3.0718 141.986,0 138.915,-21.1614 -2.958,-21.1615 -179.531,-108.7653 -304.111,-96.5918 -124.579,12.0598 -278.625,-36.293 -278.625,-36.293 l -25.713,81.574" style="fill:#ffb27d;fill-opacity:1;fill-rule:nonzero;stroke:none;stroke-width:1.13771" id="path202"/>
      <path d="m 8631.3261,7043.2821 c 0,0 54.975,-108.879 154.718,-234.0273 120.199,-150.5193 305.532,-324.4755 538.24,-358.8344 111.154,-16.383 219.829,7.6227 319.72,51.9935 0.341,0 0.455,0 0.455,0 282.607,125.4896 495.1319,414.0133 495.1319,414.0133 49.718,135.8428 -31.742,227.9975 -31.742,227.9975 0,0 -570.6759,-128.3339 -625.0359,-101.1426 -54.349,27.1913 -371.395,940.5464 -446.848,1055.2278 -75.544,114.7951 -332.815,174.4112 -332.815,174.4112 l -71.824,-1229.639" style="fill:#f9ddbf;fill-opacity:1;fill-rule:nonzero;stroke:none;stroke-width:1.13771" id="path204"/>
      <path d="m 8786.0441,6809.2548 c 120.199,-150.5193 305.532,-324.4755 538.24,-358.8344 111.154,-16.383 219.829,7.6227 319.72,51.9935 -11.036,-1.4791 -293.268,-36.4068 -405.765,164.9682 -114.773,205.357 -238.874,531.4252 -409.349,422.6599 -73.553,-46.8737 -70.299,-163.4892 -42.846,-280.7872" style="fill:#f2ccaa;fill-opacity:1;fill-rule:nonzero;stroke:none;stroke-width:1.13771" id="path206"/>
      <path d="m 6502.2238,883.14114 c 0,0 -174.1381,-158.93835 -140.1547,-271.91313 33.9835,-112.86102 191.1242,-188.17755 212.3653,-326.182 21.2297,-138.00445 106.1713,-213.320976 182.6255,-213.320976 76.4543,0 364.4774,0 364.4774,0 0,0 56.2712,97.160596 -79.6398,126.399786 -135.9111,29.35297 -187.1536,191.47691 -178.6549,341.99619 8.4873,150.63306 -12.7424,351.32543 -12.7424,351.32543 l -288.8082,66.89746 -59.4682,-75.20276" style="fill:#233862;fill-opacity:1;fill-rule:nonzero;stroke:none;stroke-width:1.13771" id="path208"/>
      <path d="m 7976.0954,815.67483 c 0,0 -62.6424,-673.29789 13.8119,-710.95615 l 978.3748,2.04788 c 0,0 0,112.97479 -157.14,138.00445 -157.152,25.14343 -433.218,117.07055 -479.933,321.97246 -46.725,205.01568 -355.1137,248.93136 -355.1137,248.93136" style="fill:#233862;fill-opacity:1;fill-rule:nonzero;stroke:none;stroke-width:1.13771" id="path210"/>
      <path d="m 7278.8942,5645.4893 c 201.3295,451.5578 324.5323,581.1432 301.0045,721.1955 -17.4981,104.3282 53.3018,1944.8047 53.3018,1944.8047 23.8919,7.3951 71.7668,13.9939 97.9569,19.7962 82.5865,18.3172 150.9403,76.3405 179.3831,155.9803 34.2679,96.0229 61.5161,237.7818 60.8789,415.2648 l 25.792,-5.0059 433.6387,-85.8972 c 0,0 -9.864,-136.5255 -10.148,-265.0869 -0.01,-1.024 -0.01,-2.0479 -0.01,-3.1856 -0.534,-111.6095 72.712,-210.1354 179.986,-241.0812 54.781,-15.8141 102.44,-29.3529 102.44,-29.3529 0,0 159.234,-454.6297 189.645,-921.6604 30.411,-467.0307 -289.548,-669.8848 2.412,-1603.1498 298.081,-953.175 -1727.5016,-352.1218 -1616.2789,-102.6216" style="fill:#ffb27d;fill-opacity:1;fill-rule:nonzero;stroke:none;stroke-width:1.13771" id="path212"/>
      <path d="m 8430.8501,8811.6277 c 0,0 -9.864,-136.5255 -10.148,-265.0869 -242.663,6.94 -370.9284,228.225 -423.4907,350.9841 l 433.6387,-85.8972" style="fill:#e8945b;fill-opacity:1;fill-rule:nonzero;stroke:none;stroke-width:1.13771" id="path214"/>
      <path d="m 8511.8891,8689.8925 c 0,0 -574.1346,-9.443 -574.5214,348.1398 -0.3982,357.6966 -74.7704,597.2988 291.7894,618.4602 366.548,21.1614 437.916,-115.2502 467.087,-234.5962 29.171,-119.346 -35.019,-720.2854 -184.355,-732.0038" style="fill:#ffb27d;fill-opacity:1;fill-rule:nonzero;stroke:none;stroke-width:1.13771" id="path216"/>
      <path d="m 8490.6481,9665.2529 c 0,0 -157.197,-419.5882 -398.4492,-481.5935 -241.2404,-62.0053 -345.8871,2.6168 -345.8871,2.6168 0,0 185.0488,146.9923 223.4466,403.5464 0,0 402.3067,275.0987 520.8897,75.4303" style="fill:#163560;fill-opacity:1;fill-rule:nonzero;stroke:none;stroke-width:1.13771" id="path218"/>
      <path d="m 8451.6821,9631.2353 c 0,0 116.57,-43.6881 164.547,-128.6752 46.919,-83.053 86.887,-193.1835 77.603,-328.2299 0,0 118.436,285.1106 -14.665,446.4381 -141.122,171.1119 -227.485,10.467 -227.485,10.467" style="fill:#163560;fill-opacity:1;fill-rule:nonzero;stroke:none;stroke-width:1.13771" id="path220"/>
      <path d="m 8386.9691,8911.7463 c 0,0 39.615,-52.1072 118.879,-48.3528 63.849,3.0719 88.469,58.3647 88.469,58.3647 0,0 -117.276,28.2152 -207.348,-10.0119" style="fill:#ebf3fa;fill-opacity:1;fill-rule:nonzero;stroke:none;stroke-width:1.13771" id="path222"/>
      <path d="m 7223.4877,7497.3429 c 0,0 -14.5855,-205.5845 0,-452.2405 9.6933,-163.4892 175.0824,-382.4987 198.5421,-436.6538 58.8879,-135.8428 125.2848,-158.0282 125.2848,-158.0282 l 513.6883,-125.8309 180.6232,-44.257 569.595,170.0879 c 0,0 259.433,724.1536 155.264,1131.7958 -104.169,407.6422 -263.335,690.7049 -263.335,690.7049 0,0 -464.778,-455.0848 -1069.9724,38.5684 l -409.69,-814.1466" style="fill:#f9ddbf;fill-opacity:1;fill-rule:nonzero;stroke:none;stroke-width:1.13771" id="path224"/>
      <path d="m 7373.8363,6978.4325 c 9.6933,-163.4892 24.7338,-315.8288 48.1935,-369.9839 58.8879,-135.8428 125.2848,-158.0282 125.2848,-158.0282 l 513.6883,-125.8309 223.1162,65.5322 c 0,0 -744.7799,112.861 -662.2616,753.7341 l -248.0212,-165.4233" style="fill:#f2ccaa;fill-opacity:1;fill-rule:nonzero;stroke:none;stroke-width:1.13771" id="path226"/>
      <path d="m 8774.9971,6340.5175 c 0,0 282.073,-877.9723 300.185,-1176.8492 18.124,-298.9907 -539.196,-4246.50957 -561.62,-4384.28648 -21.139,-129.81292 -182.353,-212.63835 -182.353,-212.63835 0,0 -74.156,-43.68813 -179.974,-13.76631 -146.8334,41.41271 -193.252,91.01695 -193.252,91.01695 0,0 -219.5443,2815.38179 -83.6787,3821.11909 135.8655,1005.7373 137.4697,1875.4043 137.4697,1875.4043 h 763.223" style="fill:#ed7d2b;fill-opacity:1;fill-rule:nonzero;stroke:none;stroke-width:1.13771" id="path228"/>
      <path d="m 7579.8987,6366.6848 c 0,0 -430.2713,-577.275 -470.3756,-967.5101 -40.1158,-390.2352 -62.9383,-1761.0643 -148.3918,-2141.5151 -85.4535,-380.4509 -399.4393,-1112.6822 -399.4393,-2299.3157 0,0 32.6296,-68.03517 133.4081,-104.21441 32.22,-11.60466 75.3962,-22.86801 117.3209,-32.42479 83.0984,-19.11356 168.37,21.50276 206.3013,97.95699 212.2742,427.32461 888.4505,1805.77631 923.1166,2091.91081 24.5405,202.5127 238.0432,1542.7373 703.7542,2329.1238 111.803,188.8601 -68.627,939.6362 -68.627,939.6362 l -997.0674,86.3523" style="fill:#f99746;fill-opacity:1;fill-rule:nonzero;stroke:none;stroke-width:1.13771" id="path230"/>
      <path d="m 8399.7341,8902.1895 c 0,0 9.921,-42.0953 114.772,-35.6104 0,0 88.025,5.3473 85.328,51.7659 0,0 -85.351,32.8799 -200.1,-16.1555" style="fill:#ffffff;fill-opacity:1;fill-rule:nonzero;stroke:none;stroke-width:1.13771" id="path232"/>
      <path d="m 8820.0501,6476.1327 c 0,0 -113.236,-89.6517 -338.185,-94.0888 -268.705,-5.461 -934.5278,68.4903 -934.5278,68.4903 0,0 -29.5805,-82.7117 -28.3745,-169.9742 0,0 813.1793,-205.1294 1284.3403,-29.9218 0,0 60.776,114.3401 16.747,225.4945" style="fill:#233862;fill-opacity:1;fill-rule:nonzero;stroke:none;stroke-width:1.13771" id="path234"/>
      <path d="m 8464.3561,6289.2067 c 0,-54.1551 36.771,-98.1846 81.972,-98.1846 45.201,0 81.972,44.0295 81.972,98.1846 0,54.155 -36.771,98.1845 -81.972,98.1845 -45.201,0 -81.972,-44.0295 -81.972,-98.1845 z m -40.639,0 c 0,76.568 54.997,138.8008 122.611,138.8008 67.603,0 122.611,-62.2328 122.611,-138.8008 0,-76.5681 -55.008,-138.8009 -122.611,-138.8009 -67.614,0 -122.611,62.2328 -122.611,138.8009" style="fill:#ffffff;fill-opacity:1;fill-rule:nonzero;stroke:none;stroke-width:1.13771" id="path236"/>
      <path d="M 6671.9249,6317.3081 7505.06,5591.7893 8498.0891,6732.2317 7664.954,7457.6368 6671.9249,6317.3081" style="fill:#b5453c;fill-opacity:1;fill-rule:nonzero;stroke:none;stroke-width:1.13771" id="path238"/>
      <path d="m 7735.2532,6314.5776 c 0,0 305.2595,-35.6103 304.3038,-108.0826 -0.9557,-72.4722 -76.0674,-221.3987 -113.7712,-227.9975 -37.7038,-6.5987 -248.4308,201.375 -248.4308,201.375 l 57.8982,134.7051" style="fill:#ffb27d;fill-opacity:1;fill-rule:nonzero;stroke:none;stroke-width:1.13771" id="path240"/>
      <path d="m 7633.1777,8311.4895 c 0,0 -407.5398,-28.5566 -563.7704,-408.3248 -156.2192,-379.7682 -452.6386,-1017.4557 -452.6386,-1124.6282 0,-107.2862 165.5825,-438.019 1054.7954,-628.1307 0,0 91.9726,96.8193 86.4092,173.2735 0,0 -555.0896,476.8151 -553.5992,532.563 2.8215,105.3521 91.0056,244.4942 578.3444,732.0038 132.498,132.5434 -149.5408,723.2434 -149.5408,723.2434" style="fill:#f9ddbf;fill-opacity:1;fill-rule:nonzero;stroke:none;stroke-width:1.13771" id="path242"/>
      <path d="m 11156.933,92.545162 h -3.868 c -22.755,0 -41.072,18.772248 -40.503,41.526488 l 61.437,2665.77265 181.237,21.1615 -154.501,-2687.1617 c -1.365,-23.20932 -20.593,-41.298938 -43.802,-41.298938" style="fill:#95c0f4;fill-opacity:1;fill-rule:nonzero;stroke:none;stroke-width:1.13771" id="path244"/>
      <path d="m 14070.272,92.545162 h 3.868 c 22.754,0 41.071,18.772248 40.616,41.526488 l -61.55,2665.77265 -181.124,21.1615 154.502,-2687.1617 c 1.251,-23.20932 20.478,-41.298938 43.688,-41.298938" style="fill:#b0d4ff;fill-opacity:1;fill-rule:nonzero;stroke:none;stroke-width:1.13771" id="path246"/>
      <path d="m 11036.904,2965.1539 v 1826.8239 c 0,321.4036 260.536,581.9397 582.054,581.9397 h 1316.105 c 321.403,0 581.939,-260.5361 581.939,-581.9397 V 2895.4121 l -2480.098,69.7418" style="fill:#b0d4ff;fill-opacity:1;fill-rule:nonzero;stroke:none;stroke-width:1.13771" id="path248"/>
      <path d="m 13752.85,2676.7439 h -2541.193 c -96.478,0 -174.753,78.2746 -174.753,174.7526 v 113.6574 h 2715.946 v -288.41" style="fill:#95c0f4;fill-opacity:1;fill-rule:nonzero;stroke:none;stroke-width:1.13771" id="path250"/>
      <path d="m 14057.302,2676.7439 h -1922.506 c -71.334,0 -129.13,57.9095 -129.13,129.2441 v 30.0356 c 0,71.3345 57.796,129.1303 129.13,129.1303 h 1922.506 c 71.448,0 129.244,-57.7958 129.244,-129.1303 v -30.0356 c 0,-71.3346 -57.796,-129.2441 -129.244,-129.2441" style="fill:#b0d4ff;fill-opacity:1;fill-rule:nonzero;stroke:none;stroke-width:1.13771" id="path252"/>
      <path d="m 13982.668,3420.3524 c -188.519,-328.1161 -425.618,-454.8572 -425.618,-454.8572 h -986.624 c 0,0 1556.162,705.1538 1412.242,454.8572" style="fill:#233862;fill-opacity:1;fill-rule:nonzero;stroke:none;stroke-width:1.13771" id="path254"/>
      <path d="m 13224.952,881.3208 c -25.712,-29.46673 -28.898,-62.34661 -16.269,-97.5019 0,-0.11377 0.113,-0.34132 0.341,-0.45509 23.437,-65.07712 101.256,-137.66313 191.477,-210.13538 11.604,-9.32924 21.844,-17.86208 30.832,-25.71229 2.275,-2.04788 4.664,-4.09576 6.826,-6.14364 1.82,-1.5928 3.641,-3.29937 5.347,-4.77839 84.191,-77.59195 52.563,-95.45403 203.764,-252.91335 172.478,-179.53094 291.255,-182.71653 325.045,-166.33348 28.67,13.88009 -29.467,109.10657 -93.748,216.05149 -3.185,5.1197 -6.257,10.35317 -9.443,15.58665 -8.533,14.2214 -17.065,28.67034 -25.598,43.00551 -75.431,128.78898 -55.976,189.20148 -38.114,380.79216 14.449,155.75276 242.219,870.00831 242.219,870.00831 l -330.619,56.8856 c 0,0 -99.55,-568.7422 -209.225,-656.346 -58.592,-46.64621 -124.238,-47.21507 -180.669,-81.80151 -3.982,-2.50296 -7.85,-4.89216 -11.718,-7.5089 -31.97,-21.16144 -64.622,-43.11928 -90.448,-72.69979" style="fill:#ffb27d;fill-opacity:1;fill-rule:nonzero;stroke:none;stroke-width:1.13771" id="path256"/>
      <path d="m 13224.952,881.3208 c -25.712,-29.46673 -28.898,-62.34661 -16.269,-97.5019 0,-0.11377 0.113,-0.34132 0.341,-0.45509 28.784,-64.96335 104.556,-137.20805 191.818,-209.45275 11.377,-9.55678 21.503,-18.20339 30.491,-26.39492 2.275,-2.04788 4.664,-4.09576 6.826,-6.14364 1.82,-1.5928 3.641,-3.29937 5.347,-4.77839 84.191,-77.59195 52.563,-95.45403 203.764,-252.91335 172.478,-179.53094 291.255,-182.71653 325.045,-166.33348 28.67,13.88009 -29.467,109.10657 -93.748,216.05149 -33.676,12.28728 -189.656,75.65784 -307.523,226.6322 -103.873,132.54343 -173.16,302.74513 -243.926,401.49852 -3.982,-2.50296 -7.85,-4.89216 -11.718,-7.5089 -31.97,-21.16144 -64.622,-43.11928 -90.448,-72.69979" style="fill:#233862;fill-opacity:1;fill-rule:nonzero;stroke:none;stroke-width:1.13771" id="path258"/>
      <path d="m 15890.497,1087.8155 c 20.365,-102.05275 165.878,-84.9871 328.344,-45.2809 162.465,39.7061 123.896,-7.5089 355.193,18.0896 231.183,25.5985 301.266,111.8371 308.32,146.196 6.371,30.6044 -107.969,41.2989 -230.5,55.4065 -15.473,1.7066 -30.946,3.6407 -46.419,5.5748 -138.346,17.407 -239.716,106.6036 -365.433,179.986 -119.005,69.5142 -296.715,352.4632 -296.715,352.4632 l -317.194,-25.0297 c 0,0 166.447,-252.7996 230.841,-362.7025 37.886,-64.7358 35.838,-150.178 31.06,-216.1653 -2.389,-35.9517 -4.778,-72.586 2.503,-108.5377" style="fill:#ffb27d;fill-opacity:1;fill-rule:nonzero;stroke:none;stroke-width:1.13771" id="path260"/>
      <path d="m 16218.841,1042.5346 c 162.465,39.7061 123.896,-7.5089 355.193,18.0896 231.183,25.5985 301.266,111.8371 308.32,146.196 6.371,30.6044 -107.969,41.2989 -230.5,55.4065 l -1.138,-2.2754 c 0,0 -138.687,-98.4121 -331.188,-102.9629 -156.89,-3.8682 -323.11,41.0714 -431.534,39.3648 -2.389,-35.9517 -4.778,-72.586 2.503,-108.5377 20.365,-102.05275 165.878,-84.9871 328.344,-45.2809" style="fill:#233862;fill-opacity:1;fill-rule:nonzero;stroke:none;stroke-width:1.13771" id="path262"/>
      <path d="m 14674.966,3115.9007 -296.488,-797.8773 -387.05,-1041.689 c 0,0 -105.01,-10.1257 -205.698,18.7722 -92.61,26.7362 -198.872,96.8193 -198.872,96.8193 0,0 107.514,1118.4845 308.092,1760.6091 51.311,164.8545 108.879,298.0805 172.477,373.1695 310.823,367.3672 607.539,-409.8038 607.539,-409.8038" style="fill:#233862;fill-opacity:1;fill-rule:nonzero;stroke:none;stroke-width:1.13771" id="path264"/>
      <path d="m 14373.586,4382.9704 c -194.321,62.5742 -748.273,-17.8621 -1304.842,-126.7411 l -116.502,192.1595 -1202.106,93.8613 c 0,0 -396.606,-879.5651 -179.417,-1440.1157 31.856,-82.3704 95.34,-135.1602 203.423,-136.9805 0,0 17.52,0.1137 17.52,0 0,0 715.507,0.4551 947.828,0.4551 597.754,0 1265.136,410.9415 1351.488,428.2347 141.304,28.2153 197.848,-254.3924 339.152,-551.1076 141.304,-296.7153 1328.279,-1314.171 1328.279,-1314.171 0,0 182.375,-1.8203 257.691,26.3949 81.119,30.4907 110.7,69.9693 110.7,69.9693 0,0 -1315.195,2616.7373 -1753.214,2758.0411" style="fill:#2b478b;fill-opacity:1;fill-rule:nonzero;stroke:none;stroke-width:1.13771" id="path266"/>
      <path d="m 12904.913,7948.6732 c -153.932,80.7775 -388.187,91.6996 -426.3,96.8193 -455.54,61.2089 -729.615,-600.5981 -745.77,-801.1767 -29.695,-369.6426 -225.267,-426.0731 -500.594,-657.5975 -551.904,-464.1864 -390.007,-1003.5756 -88.286,-1204.0405 181.124,-120.2561 500.252,0 500.252,0 4.551,-3.1856 872.966,485.4617 1300.973,721.1956 641.67,91.1307 352.236,1638.6464 -40.275,1844.7998" style="fill:#b5453c;fill-opacity:1;fill-rule:nonzero;stroke:none;stroke-width:1.13771" id="path268"/>
      <path d="m 12586.468,6304.452 c 1.82,-1.2515 -210.704,-73.7237 -352.691,-10.8083 -133.681,59.0473 -234.937,278.967 -233.003,279.0808 60.754,2.8442 127.537,55.9754 178.962,404.7978 l 25.94,-9.3292 435.288,-156.6629 c 0,0 -31.514,-139.5973 -51.879,-272.5958 -17.18,-111.7233 -26.395,-218.6682 -2.617,-234.4824" style="fill:#ffb27d;fill-opacity:1;fill-rule:nonzero;stroke:none;stroke-width:1.13771" id="path270"/>
      <path d="m 12640.964,6811.5302 c 0,0 -31.514,-139.5973 -51.879,-272.5958 -250.069,44.9396 -348.254,294.0985 -383.409,429.2587 l 435.288,-156.6629" style="fill:#ed975d;fill-opacity:1;fill-rule:nonzero;stroke:none;stroke-width:1.13771" id="path272"/>
      <path d="m 12705.814,6672.9569 c 0,0 -595.592,79.8673 -540.186,450.0788 55.521,370.2114 16.042,629.8373 398.655,594.4544 382.726,-35.4966 435.174,-187.7224 446.779,-315.8288 11.491,-127.9926 -148.813,-739.9678 -305.248,-728.7044" style="fill:#ffb27d;fill-opacity:1;fill-rule:nonzero;stroke:none;stroke-width:1.13771" id="path274"/>
      <path d="m 12989.332,7604.6291 c 0,0 -381.248,-328.6849 -640.646,-355.0798 -259.398,-26.5087 -357.583,56.658 -357.583,56.658 0,0 152.909,126.9686 244.95,331.8706 27.077,60.2987 84.304,101.7114 150.291,107.4 185.22,16.0417 536.318,23.3231 602.988,-140.8488" style="fill:#b5453c;fill-opacity:1;fill-rule:nonzero;stroke:none;stroke-width:1.13771" id="path276"/>
      <path d="m 12750.981,7633.9821 c 0,0 127.538,-123.328 167.699,-214.8 38.796,-88.2865 50.4,-299.4458 19.568,-383.2951 0,0 198.759,386.4807 86.239,574.2031 -119.346,199.0996 -273.506,23.892 -273.506,23.892" style="fill:#b5453c;fill-opacity:1;fill-rule:nonzero;stroke:none;stroke-width:1.13771" id="path278"/>
      <path d="m 13087.971,5427.0486 c -17.976,-1205.747 -4.892,-953.8576 -136.866,-1068.1977 -31.743,-27.5326 -121.053,-44.0294 -238.692,-51.7659 -369.643,-24.5745 -1019.618,36.4068 -1044.306,104.6695 -85.328,236.4165 -25.144,309.9127 -96.251,671.8189 -7.395,38.5684 -16.61,80.2087 -27.418,125.6034 -59.275,248.59 -116.957,333.122 93.406,732.4589 190.908,361.7924 389.211,655.4358 407.073,644.8551 503.438,-298.8769 544.054,-47.6702 544.054,-47.6702 0,0 507.874,-523.6887 499,-1111.772" style="fill:#f9ddbf;fill-opacity:1;fill-rule:nonzero;stroke:none;stroke-width:1.13771" id="path280"/>
      <path d="m 14378.478,2318.0234 -387.05,-1041.689 c 0,0 -105.01,-10.1257 -205.698,18.7722 -92.61,26.7362 -198.872,96.8193 -198.872,96.8193 0,0 107.514,1118.4845 308.092,1760.6091 l 483.528,-834.5116" style="fill:#2b478b;fill-opacity:1;fill-rule:nonzero;stroke:none;stroke-width:1.13771" id="path282"/>
      <path d="m 12589.085,6538.9344 c 0,0 518.114,-87.9451 578.981,-310.9366 60.754,-223.1053 418.792,-1534.5458 418.792,-1534.5458 0,0 -263.38,-47.3288 -385.002,74.2926 -121.735,121.7351 -423.456,1128.9515 -423.456,1128.9515 l -189.315,642.2383" style="fill:#f9ddbf;fill-opacity:1;fill-rule:nonzero;stroke:none;stroke-width:1.13771" id="path284"/>
      <path d="m 12712.413,4307.085 c -369.643,-24.5745 -1019.618,36.4068 -1044.306,104.6695 -85.328,236.4165 -25.144,309.9127 -96.251,671.8189 l 178.28,502.186 c 0,0 -29.467,-559.1854 135.501,-706.2915 164.741,-146.9924 675.119,-283.8591 755.327,-406.732 38.683,-59.0473 64.053,-118.0945 71.449,-165.6509" style="fill:#f2ccaa;fill-opacity:1;fill-rule:nonzero;stroke:none;stroke-width:1.13771" id="path286"/>
      <path d="m 12288.842,4542.2501 c 0,0 364.751,81.2326 423.571,48.9216 58.933,-32.4248 202.74,-150.2918 220.716,-191.3632 17.976,-40.9576 -131.065,31.1734 -179.531,44.1433 -31.401,8.419 -113.999,-20.2513 -154.957,-33.9038 -172.135,-57.3407 -277.601,-27.874 -277.601,-27.874 l -32.198,160.0761" style="fill:#ffb27d;fill-opacity:1;fill-rule:nonzero;stroke:none;stroke-width:1.13771" id="path288"/>
      <path d="m 12044.576,6586.7183 c 0,0 -489.785,-30.1494 -659.304,-266.5659 -238.692,-332.8945 -712.094,-1751.5074 -440.75,-1940.7089 305.59,-213.0934 1390.625,-55.7479 1390.625,-55.7479 0,0 36.18,168.7227 -14.107,250.4104 -50.173,81.6877 -866.709,213.5485 -904.367,251.2068 -37.659,37.6583 471.012,734.8481 471.012,847.9366 0,112.9748 156.891,913.4689 156.891,913.4689" style="fill:#f9ddbf;fill-opacity:1;fill-rule:nonzero;stroke:none;stroke-width:1.13771" id="path290"/>
      <path d="m 12730.047,4489.574 c 0,0 76.454,-98.5258 101.484,-110.358 25.143,-11.7185 41.299,-8.7604 41.299,-8.7604 l -51.538,92.6097 -91.245,26.5087" style="fill:#ffb27d;fill-opacity:1;fill-rule:nonzero;stroke:none;stroke-width:1.13771" id="path292"/>
      <path d="m 12712.413,4591.1717 222.195,-107.9689 c 0,0 -9.443,-15.4729 -36.748,-14.2214 -27.419,1.2515 -96.365,26.5087 -96.365,26.5087 l -89.082,95.6816" style="fill:#ffb27d;fill-opacity:1;fill-rule:nonzero;stroke:none;stroke-width:1.13771" id="path294"/>
      <path d="m 12831.531,4228.2416 h 1757.651 l 528.809,1314.8536 H 13363.07 l -531.539,-1314.8536" style="fill:#f99746;fill-opacity:1;fill-rule:nonzero;stroke:none;stroke-width:1.13771" id="path296"/>
      <path d="m 14609.888,4279.4386 h -2321.046 v -51.197 h 2300.34 l 20.706,51.197" style="fill:#ed7d2b;fill-opacity:1;fill-rule:nonzero;stroke:none;stroke-width:1.13771" id="path298"/>
      <path d="m 14145.588,4885.6115 c 13.198,46.3049 -13.539,83.7356 -59.73,83.7356 -46.191,0 -94.43,-37.4307 -107.741,-83.7356 -13.197,-46.1911 13.539,-83.6218 59.73,-83.6218 46.191,0 94.43,37.4307 107.741,83.6218" style="fill:#ffffff;fill-opacity:1;fill-rule:nonzero;stroke:none;stroke-width:1.13771" id="path300"/>
      <path d="m 18400.858,55.910839 h 5.12 c 30.149,0 54.383,27.305085 53.7,60.526271 l -81.346,3889.60939 -239.603,30.832 204.333,-3920.66893 c 1.707,-33.903815 27.078,-60.298731 57.796,-60.298731" style="fill:#233862;fill-opacity:1;fill-rule:nonzero;stroke:none;stroke-width:1.13771" id="path302"/>
      <path d="m 12347.093,55.910839 h -5.119 c -30.15,0 -54.383,27.305085 -53.587,60.526271 l 81.233,3889.60939 239.602,30.832 -204.219,-3920.66893 c -1.82,-33.903815 -27.191,-60.298731 -57.91,-60.298731" style="fill:#233862;fill-opacity:1;fill-rule:nonzero;stroke:none;stroke-width:1.13771" id="path304"/>
      <path d="m 18794.279,3949.9573 h -6750.613 c -53.587,0 -96.933,43.3468 -96.933,96.933 v 84.4182 c 0,53.4725 43.346,96.9331 96.933,96.9331 h 6750.613 c 53.586,0 96.933,-43.4606 96.933,-96.9331 v -84.4182 c 0,-53.5862 -43.347,-96.933 -96.933,-96.933" style="fill:#233862;fill-opacity:1;fill-rule:nonzero;stroke:none;stroke-width:1.13771" id="path306"/>
      <path d="m 23666.871,14929.446 1317.812,-208.657 -867.278,610.838 -47.442,-190.794 -322.087,-53.359 -81.005,-158.028" style="fill:#9ec3f6;fill-opacity:1;fill-rule:nonzero;stroke:none;stroke-width:1.13771" id="path310"/>
      <path d="m 24984.683,14720.789 -1090.383,583.533 -1076.389,70.538 z" style="fill:#ffffff;fill-opacity:1;fill-rule:nonzero;stroke:none;stroke-width:1.13771" id="path312"/>
      <path d="m 24117.405,15331.627 867.278,-610.838 -664.196,944.074 z" style="fill:#ffffff;fill-opacity:1;fill-rule:nonzero;stroke:none;stroke-width:1.13771" id="path314"/>
      <path d="m 11028.144,13634.388 -1715.7949,-493.198 1051.4849,953.403 94.43,-245.632 436.426,-17.862 133.454,-196.711" style="fill:#9ec3f6;fill-opacity:1;fill-rule:nonzero;stroke:none;stroke-width:1.13771" id="path316"/>
      <path d="m 9312.3491,13141.19 1352.2959,953.744 1417.703,270.32 z" style="fill:#ebf3fa;fill-opacity:1;fill-rule:nonzero;stroke:none;stroke-width:1.13771" id="path318"/>
      <path d="m 10363.834,14094.593 -1051.4849,-953.403 727.2369,1362.638 z" style="fill:#ebf3fa;fill-opacity:1;fill-rule:nonzero;stroke:none;stroke-width:1.13771" id="path320"/>
    </g>
  </g>
</svg>